<svg width="214" height="163" viewBox="0 0 214 163" fill="none" xmlns="http://www.w3.org/2000/svg">
<path d="M42.624 119.296C41.6 119.296 40.704 119.04 39.936 118.528C38.656 117.589 37.7173 116.48 37.12 115.2C36.608 114.005 36.352 112.64 36.352 111.104C36.352 108.629 36.9067 105.899 38.016 102.912C39.1253 99.9253 40.448 96.9387 41.984 93.952C43.52 90.88 44.9707 88.064 46.336 85.504C47.7867 82.944 48.768 80.8107 49.28 79.104C49.792 77.568 50.048 76.416 50.048 75.648C50.048 74.7947 49.7493 74.368 49.152 74.368C48.4693 74.368 47.4453 74.9227 46.08 76.032C44.8 77.056 43.5627 78.208 42.368 79.488C41.1733 80.768 40.32 81.7067 39.808 82.304C37.9307 84.352 36.2667 86.8267 34.816 89.728C33.4507 92.6293 32.3413 95.488 31.488 98.304C30.6347 101.12 29.9947 103.424 29.568 105.216C29.4827 105.643 29.3547 106.411 29.184 107.52C29.0133 108.629 28.6293 109.141 28.032 109.056C27.0933 108.885 26.5387 108.203 26.368 107.008C26.1973 105.728 26.0693 104.704 25.984 103.936C25.8987 103.253 25.856 102.613 25.856 102.016C25.856 101.333 25.856 100.693 25.856 100.096C25.856 95.8293 26.24 91.9467 27.008 88.448C27.8613 84.864 28.672 81.664 29.44 78.848C30.208 76.032 30.592 73.6427 30.592 71.68C30.592 69.888 30.1227 68.48 29.184 67.456C28.8427 67.0293 28.3733 66.816 27.776 66.816C26.6667 66.816 25.3867 67.712 23.936 69.504C22.5707 71.296 21.248 73.6853 19.968 76.672C18.7733 79.5733 17.7493 82.7733 16.896 86.272C16.128 89.7707 15.744 93.2693 15.744 96.768C15.744 97.536 15.744 98.304 15.744 99.072C15.8293 99.84 15.9147 100.565 16 101.248C16.0853 101.845 16.2133 102.827 16.384 104.192C16.5547 105.472 16.64 106.667 16.64 107.776C16.64 108.885 16.512 109.696 16.256 110.208L16.128 110.336C15.4453 110.763 14.7627 110.976 14.08 110.976C13.2267 110.976 12.544 110.677 12.032 110.08C11.3493 109.141 10.8373 107.947 10.496 106.496C10.24 105.045 10.0267 103.723 9.856 102.528C9.51467 100.139 9.17333 97.28 8.832 93.952C8.49067 90.5387 8.10667 87.168 7.68 83.84C7.33867 80.4267 6.82667 77.6107 6.144 75.392C5.80267 74.1973 5.376 73.0027 4.864 71.808C4.352 70.528 3.49867 69.5893 2.304 68.992C2.21867 68.9067 2.176 68.7787 2.176 68.608C2.176 68.352 2.47467 68.1813 3.072 68.096C3.75467 68.0107 4.18133 68.0533 4.352 68.224C5.632 68.5653 6.784 69.76 7.808 71.808C8.832 73.856 9.68533 76.2453 10.368 78.976C11.136 81.6213 11.776 84.1813 12.288 86.656C12.8853 89.1307 13.3547 90.9653 13.696 92.16C13.952 90.624 14.208 89.088 14.464 87.552C14.72 86.016 15.0187 84.48 15.36 82.944C16.128 79.872 17.024 76.8853 18.048 73.984C19.072 70.9973 20.5227 68.48 22.4 66.432C24.3627 64.2987 26.9653 63.0187 30.208 62.592C31.4027 62.4213 32.8107 62.976 34.432 64.256C36.0533 65.536 36.864 67.4987 36.864 70.144C36.864 70.4853 36.8213 70.8693 36.736 71.296C36.736 71.6373 36.6933 72.0213 36.608 72.448C36.5227 72.8747 36.096 74.1973 35.328 76.416C34.6453 78.6347 33.8347 81.2373 32.896 84.224C31.9573 87.1253 31.1467 89.9413 30.464 92.672C32.256 89.4293 34.3467 86.2293 36.736 83.072C39.2107 79.8293 41.728 77.1413 44.288 75.008C44.9707 74.3253 46.08 73.6427 47.616 72.96C49.2373 72.2773 50.7307 71.936 52.096 71.936C53.0347 71.936 53.8027 72.192 54.4 72.704C55.0827 73.216 55.424 74.112 55.424 75.392C55.424 75.648 55.424 75.9467 55.424 76.288C55.424 76.544 55.3813 76.8427 55.296 77.184C54.784 79.744 53.7173 82.688 52.096 86.016C50.4747 89.2587 48.7253 92.5867 46.848 96C45.056 99.4133 43.52 102.571 42.24 105.472C41.0453 108.288 40.6187 110.592 40.96 112.384C41.3013 113.835 41.856 114.859 42.624 115.456C43.4773 116.053 44.3307 116.352 45.184 116.352C46.3787 116.352 47.2747 116.053 47.872 115.456C48.0427 115.285 48.2987 115.029 48.64 114.688C49.0667 114.432 49.408 114.261 49.664 114.176C49.92 114.176 49.92 114.56 49.664 115.328C49.5787 115.669 49.3227 116.011 48.896 116.352C48.4693 116.779 48.1707 117.077 48 117.248C46.3787 118.613 44.5867 119.296 42.624 119.296ZM61.433 110.976C59.897 110.976 58.7877 110.336 58.105 109.056C57.4223 107.691 57.081 106.112 57.081 104.32C57.081 102.016 57.465 99.328 58.233 96.256C59.0863 93.184 60.1957 90.0267 61.561 86.784C62.9263 83.456 64.4623 80.4267 66.169 77.696C67.961 74.88 69.8383 72.6187 71.801 70.912C73.7637 69.12 75.6837 68.224 77.561 68.224C79.2677 68.224 80.7183 68.992 81.913 70.528C83.193 71.9787 83.833 73.6427 83.833 75.52C83.833 76.6293 83.6623 77.568 83.321 78.336C82.9797 79.0187 82.5957 79.36 82.169 79.36C81.8277 79.36 81.529 79.104 81.273 78.592C80.4197 76.6293 79.481 75.2213 78.457 74.368C77.5183 73.5147 76.537 73.088 75.513 73.088C73.8063 73.088 72.0997 74.0693 70.393 76.032C68.7717 77.9093 67.449 80.0853 66.425 82.56C65.5717 84.4373 64.761 86.6987 63.993 89.344C63.3103 91.904 62.713 94.464 62.201 97.024C61.7743 99.4987 61.561 101.547 61.561 103.168C61.561 106.069 62.2437 107.52 63.609 107.52C65.3157 107.52 67.4917 105.643 70.137 101.888C72.0997 99.1573 73.849 96 75.385 92.416C77.0063 88.832 78.3717 85.7173 79.481 83.072C79.9077 82.2187 80.377 81.664 80.889 81.408C81.401 81.152 81.8703 81.024 82.297 81.024C83.321 81.024 83.961 81.4507 84.217 82.304C84.5583 83.1573 84.729 83.8827 84.729 84.48C84.729 86.6987 84.5157 88.704 84.089 90.496C83.6623 92.2027 83.449 94.2933 83.449 96.768C83.449 98.56 83.577 100.224 83.833 101.76C84.1743 103.211 84.729 103.936 85.497 103.936C86.4357 103.936 87.6303 102.741 89.081 100.352C89.4223 99.6693 89.9343 99.328 90.617 99.328C91.385 99.328 91.769 99.712 91.769 100.48C91.769 101.589 91.001 102.784 89.465 104.064C87.929 105.259 86.393 105.856 84.857 105.856C82.809 105.856 81.3583 105.003 80.505 103.296C79.0543 100.48 78.329 97.9627 78.329 95.744C78.329 93.44 78.2863 91.8613 78.201 91.008C77.7743 92.032 76.9637 93.6533 75.769 95.872C74.5743 98.0053 73.1663 100.267 71.545 102.656C69.9237 104.96 68.217 106.923 66.425 108.544C64.633 110.165 62.969 110.976 61.433 110.976ZM107.602 118.4C104.871 118.4 102.781 117.12 101.33 114.56C99.8793 112.085 99.154 109.355 99.154 106.368C99.154 103.552 99.6233 100.608 100.562 97.536C101.501 94.464 102.653 91.4347 104.018 88.448C105.469 85.4613 106.962 82.7307 108.498 80.256C106.962 80.8533 105.511 81.152 104.146 81.152C103.463 81.152 102.866 81.0667 102.354 80.896C101.842 80.7253 101.415 80.5973 101.074 80.512C100.647 81.536 99.8793 83.2427 98.77 85.632C97.746 88.0213 96.6367 90.5387 95.442 93.184C94.3327 95.744 93.3513 97.92 92.498 99.712C91.1327 102.613 89.938 104.064 88.914 104.064C88.402 104.064 88.146 103.723 88.146 103.04C88.146 102.528 88.3593 101.845 88.786 100.992C90.7487 97.3227 92.5833 93.696 94.29 90.112C96.082 86.528 97.7033 83.072 99.154 79.744C98.9833 79.3173 98.8127 78.7627 98.642 78.08C98.4713 77.312 98.386 76.5013 98.386 75.648C98.386 74.7093 98.4713 73.728 98.642 72.704C98.898 71.5947 99.2393 70.528 99.666 69.504C99.922 68.9067 100.391 68.0533 101.074 66.944C101.757 65.7493 102.525 64.6827 103.378 63.744C104.231 62.72 105.042 62.208 105.81 62.208C107.261 62.208 107.986 62.976 107.986 64.512C107.986 65.9627 107.517 67.6267 106.578 69.504C105.725 71.3813 104.829 73.1307 103.89 74.752C102.951 76.288 102.482 77.44 102.482 78.208C102.482 78.8907 102.823 79.232 103.506 79.232C104.445 79.232 105.597 78.7627 106.962 77.824C108.413 76.8 109.565 75.8613 110.418 75.008C110.845 74.5813 111.527 73.9413 112.466 73.088C113.405 72.1493 114.301 71.68 115.154 71.68C116.007 71.68 116.562 71.936 116.818 72.448C117.159 72.96 117.33 73.5573 117.33 74.24C117.33 75.008 116.989 75.9893 116.306 77.184C115.623 78.2933 114.813 79.4027 113.874 80.512C113.021 81.6213 112.295 82.56 111.698 83.328C110.503 85.12 109.138 87.3813 107.602 90.112C106.066 92.8427 104.743 95.7867 103.634 98.944C102.525 102.016 101.97 104.96 101.97 107.776C101.97 109.653 102.439 111.616 103.378 113.664C104.317 115.712 105.597 116.736 107.218 116.736C108.669 116.736 110.205 115.968 111.826 114.432C113.533 112.896 115.111 111.061 116.562 108.928C118.098 106.795 119.421 104.747 120.53 102.784C121.725 100.821 122.535 99.456 122.962 98.688C123.133 98.2613 123.431 97.7493 123.858 97.152C124.285 96.4693 124.797 96.128 125.394 96.128C125.906 96.128 126.162 96.384 126.162 96.896C126.162 97.3227 126.034 97.8347 125.778 98.432C125.607 98.944 125.437 99.4133 125.266 99.84C124.498 101.632 123.559 103.509 122.45 105.472C121.341 107.435 120.573 108.757 120.146 109.44C118.951 111.403 117.159 113.365 114.77 115.328C112.466 117.376 110.077 118.4 107.602 118.4ZM134.589 132.48C133.736 132.48 132.84 131.925 131.901 130.816C131.048 129.792 130.237 128.341 129.469 126.464C128.189 123.392 127.293 120.149 126.781 116.736C126.269 113.408 126.013 110.037 126.013 106.624C126.013 102.869 126.269 99.2 126.781 95.616C127.293 92.032 127.848 88.7893 128.445 85.888C128.872 83.84 129.384 81.664 129.981 79.36C130.578 77.056 131.133 75.2213 131.645 73.856C131.133 73.9413 130.322 74.24 129.213 74.752C128.104 75.264 126.952 75.776 125.757 76.288C124.648 76.8 123.666 77.056 122.813 77.056C121.533 77.056 120.893 76.3307 120.893 74.88C120.893 74.112 121.149 73.4293 121.661 72.832C122.258 72.2347 122.984 71.7653 123.837 71.424C125.544 70.656 127.421 70.1013 129.469 69.76C131.517 69.3333 132.882 68.9067 133.565 68.48L136.893 60.032C137.234 59.1787 137.832 57.8133 138.685 55.936C139.624 53.9733 140.69 51.8827 141.885 49.664C143.165 47.4453 144.402 45.44 145.597 43.648C146.536 42.2827 147.432 41.216 148.285 40.448C149.138 39.5947 150.077 39.168 151.101 39.168C152.637 39.168 153.405 39.7653 153.405 40.96C153.405 41.6427 153.106 42.6667 152.509 44.032C151.997 45.3973 151.016 47.1893 149.565 49.408C147.944 51.968 146.28 54.528 144.573 57.088C142.952 59.5627 141.544 62.1653 140.349 64.896C140.264 65.2373 140.05 65.792 139.709 66.56C139.453 67.2427 139.24 67.6693 139.069 67.84L141.629 67.456C142.312 67.3707 143.08 67.328 143.933 67.328C144.786 67.2427 145.725 67.2 146.749 67.2C148.2 67.2 149.565 67.2853 150.845 67.456C152.21 67.5413 153.32 67.7547 154.173 68.096C154.6 68.2667 154.984 68.48 155.325 68.736C155.752 68.9067 155.965 69.0773 155.965 69.248C155.965 69.5893 154.856 69.76 152.637 69.76C151.357 69.76 149.522 69.9733 147.133 70.4C144.829 70.8267 142.184 71.5093 139.197 72.448C137.746 72.8747 136.765 73.472 136.253 74.24C135.741 75.008 135.058 76.8427 134.205 79.744C132.925 84.352 131.901 88.7893 131.133 93.056C130.365 97.2373 129.768 101.504 129.341 105.856C129.256 106.709 129.17 107.605 129.085 108.544C129.085 109.483 129.085 110.507 129.085 111.616C129.085 114.517 129.341 117.547 129.853 120.704C130.45 123.861 131.304 126.592 132.413 128.896C132.669 129.408 132.925 129.877 133.181 130.304C133.522 130.731 133.906 131.029 134.333 131.2C134.93 131.456 135.229 131.755 135.229 132.096C135.229 132.352 135.016 132.48 134.589 132.48ZM156.345 113.664C153.273 113.664 150.585 111.872 148.281 108.288C146.062 104.619 144.953 98.8587 144.953 91.008C144.953 85.888 145.593 81.792 146.873 78.72C148.153 75.5627 149.732 73.2587 151.609 71.808C153.486 70.3573 155.278 69.632 156.985 69.632C158.692 69.632 160.142 70.2293 161.337 71.424C162.532 72.5333 163.129 74.1547 163.129 76.288C163.129 78.336 162.532 80.512 161.337 82.816C160.142 85.0347 158.692 87.0827 156.985 88.96C155.364 90.752 153.742 91.9467 152.121 92.544C151.78 92.7147 151.353 92.8 150.841 92.8C150.5 92.8 150.329 92.672 150.329 92.416C150.329 91.7333 151.012 90.9653 152.377 90.112C154.084 88.9173 155.705 87.1253 157.241 84.736C158.777 82.2613 159.545 80.0853 159.545 78.208C159.545 77.0987 159.289 76.2453 158.777 75.648C158.265 74.9653 157.668 74.624 156.985 74.624C155.705 74.624 154.297 75.648 152.761 77.696C151.31 79.6587 150.244 83.072 149.561 87.936C149.39 89.3013 149.22 90.624 149.049 91.904C148.964 93.0987 148.921 94.2933 148.921 95.488C148.921 100.267 149.646 104.021 151.097 106.752C152.548 109.397 154.468 110.72 156.857 110.72C158.905 110.72 161.209 109.525 163.769 107.136C166.329 104.661 168.846 100.821 171.321 95.616C171.918 94.2507 172.601 93.568 173.369 93.568C173.881 93.568 174.137 93.9093 174.137 94.592C174.137 95.1893 173.966 95.8293 173.625 96.512C171.406 101.973 168.718 106.197 165.561 109.184C162.404 112.171 159.332 113.664 156.345 113.664ZM184.092 117.504C182.983 117.504 182.172 117.12 181.66 116.352C181.233 115.669 181.02 114.987 181.02 114.304C181.02 112.939 181.617 111.531 182.812 110.08C183.239 109.568 183.836 108.885 184.604 108.032C185.372 107.093 185.927 106.368 186.268 105.856C185.159 104.32 183.665 102.912 181.788 101.632C179.911 100.352 178.076 98.7307 176.284 96.768C174.663 94.976 173.297 92.8 172.188 90.24C171.079 87.5947 170.524 85.0773 170.524 82.688C170.524 79.872 171.164 77.184 172.444 74.624C173.724 72.064 175.303 69.8453 177.18 67.968C179.228 65.92 181.489 64.2987 183.964 63.104C186.439 61.824 188.999 61.184 191.644 61.184C193.436 61.184 195.185 61.6107 196.892 62.464C198.599 63.3173 199.452 64.7253 199.452 66.688C199.452 68.992 198.94 70.144 197.916 70.144C197.489 70.144 197.191 69.7173 197.02 68.864C196.935 68.4373 196.892 68.0107 196.892 67.584C196.892 67.072 196.892 66.7307 196.892 66.56C196.892 65.7067 196.508 64.9813 195.74 64.384C194.972 63.7013 194.119 63.36 193.18 63.36C191.217 63.36 189.041 64.128 186.652 65.664C184.263 67.2 182.257 68.992 180.636 71.04C179.015 73.1733 177.692 75.6053 176.668 78.336C175.644 80.9813 175.132 83.5413 175.132 86.016C175.132 89.088 175.815 91.7333 177.18 93.952C178.545 96.1707 180.167 98.1333 182.044 99.84C184.007 101.547 185.756 103.211 187.292 104.832C188.06 103.893 188.871 102.997 189.724 102.144C190.663 101.291 191.516 100.608 192.284 100.096C192.967 99.6693 193.436 99.456 193.692 99.456C193.948 99.456 194.076 99.584 194.076 99.84C194.076 100.267 193.692 100.779 192.924 101.376C192.753 101.547 192.241 102.059 191.388 102.912C190.62 103.68 189.681 104.661 188.572 105.856C189.255 106.624 189.809 107.435 190.236 108.288C190.663 109.141 190.876 110.08 190.876 111.104C190.876 112.469 190.108 113.877 188.572 115.328C187.036 116.779 185.543 117.504 184.092 117.504ZM185.5 114.048C186.097 114.048 186.652 113.493 187.164 112.384C187.761 111.36 188.06 110.336 188.06 109.312C188.06 108.8 187.975 108.331 187.804 107.904C187.633 107.477 187.505 107.221 187.42 107.136C186.737 107.989 186.097 108.928 185.5 109.952C184.988 110.891 184.732 111.744 184.732 112.512C184.732 113.536 184.988 114.048 185.5 114.048Z" fill="black"/>
<path d="M149.67 131.45C149.67 131.263 149.733 131.107 149.86 130.98C149.987 130.853 150.14 130.79 150.32 130.79C150.507 130.79 150.663 130.853 150.79 130.98C150.917 131.107 150.98 131.263 150.98 131.45C150.98 131.63 150.917 131.783 150.79 131.91C150.663 132.037 150.507 132.1 150.32 132.1C150.14 132.1 149.987 132.037 149.86 131.91C149.733 131.783 149.67 131.63 149.67 131.45ZM152.316 131.45C152.316 131.263 152.38 131.107 152.506 130.98C152.633 130.853 152.786 130.79 152.966 130.79C153.153 130.79 153.31 130.853 153.436 130.98C153.563 131.107 153.626 131.263 153.626 131.45C153.626 131.63 153.563 131.783 153.436 131.91C153.31 132.037 153.153 132.1 152.966 132.1C152.786 132.1 152.633 132.037 152.506 131.91C152.38 131.783 152.316 131.63 152.316 131.45ZM154.963 131.45C154.963 131.263 155.026 131.107 155.153 130.98C155.28 130.853 155.433 130.79 155.613 130.79C155.8 130.79 155.956 130.853 156.083 130.98C156.21 131.107 156.273 131.263 156.273 131.45C156.273 131.63 156.21 131.783 156.083 131.91C155.956 132.037 155.8 132.1 155.613 132.1C155.433 132.1 155.28 132.037 155.153 131.91C155.026 131.783 154.963 131.63 154.963 131.45ZM164.451 128.8C164.451 128.553 164.414 128.327 164.341 128.12C164.267 127.907 164.164 127.727 164.031 127.58C163.897 127.427 163.741 127.307 163.561 127.22C163.381 127.133 163.187 127.09 162.981 127.09C162.741 127.09 162.524 127.143 162.331 127.25C162.144 127.357 161.981 127.51 161.841 127.71C161.707 127.903 161.604 128.14 161.531 128.42C161.457 128.7 161.421 129.01 161.421 129.35C161.421 129.697 161.457 130.01 161.531 130.29C161.604 130.57 161.707 130.81 161.841 131.01C161.981 131.203 162.147 131.353 162.341 131.46C162.534 131.567 162.751 131.62 162.991 131.62C163.264 131.62 163.511 131.557 163.731 131.43C163.951 131.303 164.117 131.123 164.231 130.89C164.377 130.597 164.451 130.193 164.451 129.68V128.8ZM164.481 131.28H164.441C164.207 131.573 163.964 131.783 163.711 131.91C163.464 132.037 163.164 132.1 162.811 132.1C162.437 132.1 162.097 132.037 161.791 131.91C161.484 131.777 161.217 131.593 160.991 131.36C160.771 131.12 160.597 130.837 160.471 130.51C160.351 130.177 160.291 129.813 160.291 129.42C160.291 129.027 160.357 128.66 160.491 128.32C160.624 127.973 160.807 127.673 161.041 127.42C161.274 127.167 161.547 126.967 161.861 126.82C162.174 126.673 162.511 126.6 162.871 126.6C163.231 126.6 163.577 126.673 163.911 126.82C164.244 126.967 164.521 127.163 164.741 127.41L165.181 126.72H165.431V132.9C165.431 133.18 165.437 133.4 165.451 133.56C165.471 133.72 165.514 133.843 165.581 133.93C165.654 134.017 165.757 134.073 165.891 134.1C166.031 134.127 166.221 134.143 166.461 134.15V134.5H163.411V134.15C163.624 134.143 163.797 134.12 163.931 134.08C164.071 134.047 164.181 133.983 164.261 133.89C164.341 133.803 164.397 133.683 164.431 133.53C164.464 133.383 164.481 133.197 164.481 132.97V131.28ZM166.984 126.14C167.29 125.907 167.507 125.687 167.634 125.48C167.767 125.267 167.834 125.033 167.834 124.78C167.747 124.833 167.647 124.86 167.534 124.86C167.38 124.86 167.254 124.81 167.154 124.71C167.06 124.603 167.014 124.47 167.014 124.31C167.014 124.13 167.074 123.983 167.194 123.87C167.32 123.757 167.487 123.7 167.694 123.7C168.167 123.7 168.404 124.013 168.404 124.64C168.404 124.813 168.384 124.97 168.344 125.11C168.304 125.25 168.237 125.39 168.144 125.53C168.057 125.663 167.937 125.803 167.784 125.95C167.63 126.09 167.44 126.243 167.214 126.41L166.984 126.14ZM173.56 130.41C173.56 130.683 173.567 130.9 173.58 131.06C173.594 131.22 173.627 131.343 173.68 131.43C173.74 131.51 173.824 131.563 173.93 131.59C174.037 131.617 174.187 131.637 174.38 131.65V132H171.72V131.65C171.914 131.637 172.067 131.617 172.18 131.59C172.294 131.563 172.38 131.51 172.44 131.43C172.5 131.35 172.537 131.237 172.55 131.09C172.57 130.937 172.58 130.733 172.58 130.48V126.29C172.58 125.897 172.574 125.583 172.56 125.35C172.554 125.117 172.537 124.94 172.51 124.82C172.497 124.74 172.474 124.677 172.44 124.63C172.414 124.577 172.37 124.537 172.31 124.51C172.25 124.477 172.17 124.453 172.07 124.44C171.97 124.427 171.847 124.42 171.7 124.42V124.08L173.54 123.7V127.51H173.58C173.68 127.377 173.804 127.257 173.95 127.15C174.104 127.037 174.267 126.94 174.44 126.86C174.614 126.78 174.794 126.717 174.98 126.67C175.174 126.623 175.36 126.6 175.54 126.6C175.847 126.6 176.127 126.653 176.38 126.76C176.64 126.867 176.84 127.01 176.98 127.19C177.094 127.343 177.177 127.547 177.23 127.8C177.284 128.047 177.31 128.383 177.31 128.81V130.41C177.31 130.683 177.317 130.9 177.33 131.06C177.344 131.213 177.377 131.333 177.43 131.42C177.49 131.507 177.574 131.563 177.68 131.59C177.787 131.617 177.937 131.637 178.13 131.65V132H175.48V131.65C175.667 131.643 175.817 131.627 175.93 131.6C176.044 131.567 176.127 131.51 176.18 131.43C176.24 131.35 176.277 131.237 176.29 131.09C176.31 130.937 176.32 130.733 176.32 130.48V129.22C176.32 128.473 176.234 127.943 176.06 127.63C175.887 127.31 175.597 127.15 175.19 127.15C174.877 127.15 174.59 127.23 174.33 127.39C174.077 127.55 173.877 127.77 173.73 128.05C173.697 128.123 173.667 128.193 173.64 128.26C173.62 128.32 173.604 128.39 173.59 128.47C173.577 128.55 173.567 128.643 173.56 128.75C173.56 128.85 173.56 128.977 173.56 129.13V130.41ZM182.995 128.3C182.995 128.027 182.989 127.813 182.975 127.66C182.962 127.5 182.925 127.38 182.865 127.3C182.812 127.213 182.729 127.157 182.615 127.13C182.509 127.097 182.359 127.07 182.165 127.05V126.7H183.975V129.77C183.975 130.15 183.979 130.46 183.985 130.7C183.999 130.94 184.015 131.12 184.035 131.24C184.049 131.327 184.069 131.397 184.095 131.45C184.129 131.497 184.175 131.537 184.235 131.57C184.295 131.597 184.372 131.617 184.465 131.63C184.565 131.637 184.692 131.64 184.845 131.64V131.99L183.195 132.11L183.085 130.91H183.045C182.792 131.323 182.499 131.627 182.165 131.82C181.839 132.007 181.495 132.1 181.135 132.1C180.855 132.1 180.582 132.047 180.315 131.94C180.055 131.833 179.859 131.69 179.725 131.51C179.612 131.363 179.529 131.16 179.475 130.9C179.429 130.64 179.405 130.303 179.405 129.89V128.3C179.405 128.027 179.399 127.813 179.385 127.66C179.372 127.5 179.335 127.38 179.275 127.3C179.222 127.213 179.139 127.157 179.025 127.13C178.919 127.097 178.769 127.07 178.575 127.05V126.7H180.385V129.43C180.385 130.157 180.469 130.683 180.635 131.01C180.809 131.337 181.082 131.5 181.455 131.5C182.042 131.5 182.499 131.117 182.825 130.35C182.859 130.27 182.885 130.197 182.905 130.13C182.925 130.063 182.942 129.99 182.955 129.91C182.969 129.83 182.979 129.74 182.985 129.64C182.992 129.54 182.995 129.42 182.995 129.28V128.3ZM190.284 131.07C189.718 131.757 189.014 132.1 188.174 132.1C187.781 132.1 187.424 132.037 187.104 131.91C186.784 131.777 186.508 131.593 186.274 131.36C186.048 131.12 185.871 130.837 185.744 130.51C185.618 130.177 185.554 129.81 185.554 129.41C185.554 129.003 185.621 128.627 185.754 128.28C185.888 127.933 186.074 127.637 186.314 127.39C186.561 127.143 186.851 126.95 187.184 126.81C187.524 126.67 187.894 126.6 188.294 126.6C188.941 126.6 189.441 126.777 189.794 127.13C190.148 127.477 190.324 127.977 190.324 128.63C190.324 128.723 190.304 128.78 190.264 128.8C190.231 128.82 190.148 128.83 190.014 128.83H186.724C186.711 128.883 186.701 128.95 186.694 129.03C186.688 129.103 186.684 129.187 186.684 129.28C186.684 129.627 186.724 129.943 186.804 130.23C186.891 130.51 187.011 130.75 187.164 130.95C187.324 131.15 187.511 131.307 187.724 131.42C187.944 131.527 188.188 131.58 188.454 131.58C188.734 131.58 188.994 131.52 189.234 131.4C189.474 131.273 189.721 131.07 189.974 130.79L190.284 131.07ZM188.634 128.37C188.768 128.37 188.874 128.367 188.954 128.36C189.034 128.353 189.094 128.34 189.134 128.32C189.174 128.3 189.201 128.273 189.214 128.24C189.228 128.2 189.234 128.15 189.234 128.09C189.234 127.783 189.134 127.54 188.934 127.36C188.741 127.173 188.474 127.08 188.134 127.08C187.414 127.08 186.968 127.51 186.794 128.37H188.634ZM191.71 127.94C191.63 127.74 191.557 127.583 191.49 127.47C191.43 127.35 191.363 127.26 191.29 127.2C191.217 127.14 191.133 127.103 191.04 127.09C190.953 127.07 190.847 127.057 190.72 127.05V126.7H193.37V127.05C193.237 127.057 193.127 127.063 193.04 127.07C192.953 127.077 192.883 127.093 192.83 127.12C192.783 127.14 192.75 127.173 192.73 127.22C192.71 127.26 192.7 127.32 192.7 127.4C192.7 127.513 192.713 127.62 192.74 127.72C192.773 127.82 192.807 127.92 192.84 128.02L193.9 130.92H193.94L194.85 128.77C194.99 128.437 195.09 128.17 195.15 127.97C195.21 127.77 195.24 127.593 195.24 127.44C195.24 127.287 195.2 127.183 195.12 127.13C195.04 127.077 194.867 127.05 194.6 127.05V126.7H196.59V127.05C196.483 127.05 196.387 127.077 196.3 127.13C196.213 127.183 196.137 127.25 196.07 127.33C196.017 127.403 195.96 127.503 195.9 127.63C195.847 127.75 195.79 127.877 195.73 128.01C195.677 128.143 195.627 128.277 195.58 128.41C195.533 128.537 195.49 128.64 195.45 128.72L193.98 132.11H193.4L191.71 127.94ZM200.166 129.04C199.786 129.187 199.462 129.33 199.196 129.47C198.936 129.61 198.726 129.75 198.566 129.89C198.406 130.03 198.289 130.17 198.216 130.31C198.149 130.45 198.116 130.593 198.116 130.74C198.116 130.96 198.189 131.14 198.336 131.28C198.482 131.42 198.676 131.49 198.916 131.49C199.089 131.49 199.249 131.447 199.396 131.36C199.549 131.273 199.682 131.157 199.796 131.01C199.909 130.857 199.999 130.68 200.066 130.48C200.132 130.273 200.166 130.057 200.166 129.83V129.04ZM200.166 128.61V128.2C200.166 127.387 199.819 126.98 199.126 126.98C199.012 126.98 198.916 126.99 198.836 127.01C198.756 127.03 198.689 127.063 198.636 127.11C198.582 127.157 198.532 127.223 198.486 127.31C198.446 127.397 198.406 127.503 198.366 127.63C198.292 127.823 198.219 127.953 198.146 128.02C198.079 128.08 197.979 128.11 197.846 128.11C197.512 128.11 197.346 127.943 197.346 127.61C197.346 127.29 197.516 127.043 197.856 126.87C198.196 126.69 198.679 126.6 199.306 126.6C199.972 126.6 200.446 126.72 200.726 126.96C201.006 127.193 201.146 127.593 201.146 128.16V130.4C201.146 131.16 201.296 131.54 201.596 131.54C201.689 131.54 201.779 131.53 201.866 131.51C201.952 131.483 202.026 131.42 202.086 131.32L202.226 131.56C202.146 131.713 201.999 131.843 201.786 131.95C201.572 132.05 201.349 132.1 201.116 132.1C200.822 132.1 200.602 132.007 200.456 131.82C200.316 131.633 200.246 131.37 200.246 131.03H200.196C200.022 131.357 199.782 131.617 199.476 131.81C199.169 131.997 198.829 132.09 198.456 132.09C198.036 132.09 197.706 131.983 197.466 131.77C197.226 131.557 197.106 131.27 197.106 130.91C197.106 130.75 197.132 130.597 197.186 130.45C197.246 130.303 197.339 130.163 197.466 130.03C197.592 129.897 197.759 129.767 197.966 129.64C198.172 129.507 198.426 129.373 198.726 129.24L200.166 128.61ZM202.883 131.45C202.883 131.263 202.946 131.107 203.073 130.98C203.2 130.853 203.353 130.79 203.533 130.79C203.72 130.79 203.876 130.853 204.003 130.98C204.13 131.107 204.193 131.263 204.193 131.45C204.193 131.63 204.13 131.783 204.003 131.91C203.876 132.037 203.72 132.1 203.533 132.1C203.353 132.1 203.2 132.037 203.073 131.91C202.946 131.783 202.883 131.63 202.883 131.45ZM205.529 131.45C205.529 131.263 205.593 131.107 205.719 130.98C205.846 130.853 205.999 130.79 206.179 130.79C206.366 130.79 206.523 130.853 206.649 130.98C206.776 131.107 206.839 131.263 206.839 131.45C206.839 131.63 206.776 131.783 206.649 131.91C206.523 132.037 206.366 132.1 206.179 132.1C205.999 132.1 205.846 132.037 205.719 131.91C205.593 131.783 205.529 131.63 205.529 131.45ZM208.396 131.45C208.396 131.263 208.459 131.107 208.586 130.98C208.713 130.853 208.866 130.79 209.046 130.79C209.233 130.79 209.389 130.853 209.516 130.98C209.643 131.107 209.706 131.263 209.706 131.45C209.706 131.63 209.643 131.783 209.516 131.91C209.389 132.037 209.233 132.1 209.046 132.1C208.866 132.1 208.713 132.037 208.586 131.91C208.459 131.783 208.396 131.63 208.396 131.45ZM208.806 129.93C208.806 129.397 208.799 128.943 208.786 128.57C208.779 128.197 208.763 127.87 208.736 127.59C208.716 127.31 208.689 127.06 208.656 126.84C208.623 126.62 208.586 126.393 208.546 126.16C208.513 125.973 208.486 125.82 208.466 125.7C208.446 125.573 208.429 125.467 208.416 125.38C208.409 125.287 208.403 125.203 208.396 125.13C208.396 125.05 208.396 124.96 208.396 124.86C208.396 124.68 208.453 124.527 208.566 124.4C208.686 124.267 208.846 124.2 209.046 124.2C209.246 124.2 209.403 124.267 209.516 124.4C209.636 124.527 209.696 124.68 209.696 124.86C209.696 124.953 209.696 125.04 209.696 125.12C209.696 125.193 209.689 125.277 209.676 125.37C209.669 125.463 209.656 125.577 209.636 125.71C209.616 125.837 209.586 126 209.546 126.2C209.506 126.42 209.469 126.64 209.436 126.86C209.403 127.073 209.376 127.32 209.356 127.6C209.336 127.873 209.319 128.197 209.306 128.57C209.293 128.943 209.286 129.397 209.286 129.93H208.806ZM211.472 131.45C211.472 131.263 211.535 131.107 211.662 130.98C211.789 130.853 211.942 130.79 212.122 130.79C212.309 130.79 212.465 130.853 212.592 130.98C212.719 131.107 212.782 131.263 212.782 131.45C212.782 131.63 212.719 131.783 212.592 131.91C212.465 132.037 212.309 132.1 212.122 132.1C211.942 132.1 211.789 132.037 211.662 131.91C211.535 131.783 211.472 131.63 211.472 131.45ZM211.882 129.93C211.882 129.397 211.875 128.943 211.862 128.57C211.855 128.197 211.839 127.87 211.812 127.59C211.792 127.31 211.765 127.06 211.732 126.84C211.699 126.62 211.662 126.393 211.622 126.16C211.589 125.973 211.562 125.82 211.542 125.7C211.522 125.573 211.505 125.467 211.492 125.38C211.485 125.287 211.479 125.203 211.472 125.13C211.472 125.05 211.472 124.96 211.472 124.86C211.472 124.68 211.529 124.527 211.642 124.4C211.762 124.267 211.922 124.2 212.122 124.2C212.322 124.2 212.479 124.267 212.592 124.4C212.712 124.527 212.772 124.68 212.772 124.86C212.772 124.953 212.772 125.04 212.772 125.12C212.772 125.193 212.765 125.277 212.752 125.37C212.745 125.463 212.732 125.577 212.712 125.71C212.692 125.837 212.662 126 212.622 126.2C212.582 126.42 212.545 126.64 212.512 126.86C212.479 127.073 212.452 127.32 212.432 127.6C212.412 127.873 212.395 128.197 212.382 128.57C212.369 128.943 212.362 129.397 212.362 129.93H211.882Z" fill="black"/>
</svg>
